<svg xmlns="http://www.w3.org/2000/svg" viewBox="0 0 168 248" fill="none">
    <path d="M10 0C4.477 0 0 4.477 0 10v228c0 5.523 4.477 10 10 10h148c5.523 0 10-4.477 10-10V10c0-5.523-4.477-10-10-10H10z" fill="#061325"/>
    <path d="M158 10a10 10 0 0110 10v208a10 10 0 01-10 10H10a10 10 0 01-10-10V20A10 10 0 0110 10h148z" fill="url(#paint0_linear_1_2)"/>
    <path d="M10 8h148c1.105 0 2 .895 2 2v228c0 1.105-.895 2-2 2H10c-1.105 0-2-.895-2-2V10c0-1.105.895-2 2-2z" fill="url(#paint1_radial_1_2)"/>
    <path d="M158 12a8 8 0 018 8v208a8 8 0 01-8 8H10a8 8 0 01-8-8V20a8 8 0 018-8h148z" fill="url(#paint2_radial_1_2)"/>
    <path d="M158 12a8 8 0 018 8v208a8 8 0 01-8 8H10a8 8 0 01-8-8V20a8 8 0 018-8h148z" fill-opacity=".3" fill-rule="evenodd" clip-rule="evenodd" fill="url(#paint3_linear_1_2)"/>
    <path d="M10 14a6 6 0 01-6-6h154a6 6 0 01-6 6H10z" fill-opacity=".2"/>
    <path d="M158 234a6 6 0 016 6H4a6 6 0 016-6h148z" fill-opacity=".2"/>
    <defs>
        <linearGradient id="paint0_linear_1_2" x1="84" y1="10" x2="84" y2="238" gradientUnits="userSpaceOnUse">
            <stop stop-color="#3A0318"/>
            <stop offset="1" stop-color="#801225"/>
        </linearGradient>
        <radialGradient id="paint1_radial_1_2" cx="0" cy="0" r="1" gradientUnits="userSpaceOnUse" gradientTransform="matrix(0 116 -108 0 84 124)">
            <stop stop-color="#FB3B3B"/>
            <stop offset="1" stop-color="#811426"/>
        </radialGradient>
        <radialGradient id="paint2_radial_1_2" cx="0" cy="0" r="1" gradientUnits="userSpaceOnUse" gradientTransform="matrix(84 0 0 124 84 124)">
            <stop stop-color="#fff" stop-opacity=".2"/>
            <stop offset="1" stop-color="#fff" stop-opacity="0"/>
        </radialGradient>
        <linearGradient id="paint3_linear_1_2" x1="84" y1="12" x2="84" y2="236" gradientUnits="userSpaceOnUse">
            <stop stop-color="#fff" stop-opacity=".3"/>
            <stop offset="1" stop-color="#fff" stop-opacity="0"/>
        </linearGradient>
    </defs>
</svg> 