<svg width="220" height="220" viewBox="0 0 220 220" xmlns="http://www.w3.org/2000/svg">
  <defs>
    <radialGradient id="chip3d-body" cx="50%" cy="38%" r="60%">
      <stop offset="0%" stop-color="#ffe8c0" />
      <stop offset="45%" stop-color="#f6c56a" />
      <stop offset="100%" stop-color="#b87309" />
    </radialGradient>
    <radialGradient id="chip3d-rim" cx="50%" cy="35%" r="70%">
      <stop offset="0%" stop-color="#f9d280" />
      <stop offset="60%" stop-color="#904f06" />
      <stop offset="100%" stop-color="#4a2c04" />
    </radialGradient>
    <linearGradient id="chip3d-edge" x1="0%" y1="0%" x2="0%" y2="100%">
      <stop offset="0%" stop-color="#ffe9c6" stop-opacity="0.9" />
      <stop offset="45%" stop-color="#f2b03c" />
      <stop offset="100%" stop-color="#7a3f00" />
    </linearGradient>
    <filter id="chip3d-glow" x="-30%" y="-30%" width="160%" height="160%">
      <feGaussianBlur in="SourceGraphic" stdDeviation="6" result="blur" />
      <feMerge>
        <feMergeNode in="blur" />
        <feMergeNode in="SourceGraphic" />
      </feMerge>
    </filter>
  </defs>

  <ellipse cx="110" cy="114" rx="102" ry="90" fill="url(#chip3d-edge)" filter="url(#chip3d-glow)" />
  <ellipse cx="110" cy="108" rx="100" ry="86" fill="url(#chip3d-rim)" />

  <g transform="translate(110 106) scale(0.92)">
    <ellipse cx="0" cy="0" rx="86" ry="72" fill="url(#chip3d-body)" />
    <ellipse cx="0" cy="0" rx="62" ry="50" fill="#1b0d00" opacity="0.12" />
    <text x="0" y="18" text-anchor="middle" font-family="'Montserrat', sans-serif" font-size="66" font-weight="700" fill="#2e1500">100</text>
  </g>

  <g fill="#ffe8c0" opacity="0.65">
    <rect x="105" y="18" width="10" height="34" rx="5" transform="rotate(8 110 35)" />
    <rect x="173" y="70" width="10" height="34" rx="5" transform="rotate(70 178 87)" />
    <rect x="174" y="138" width="10" height="34" rx="5" transform="rotate(118 179 155)" />
    <rect x="104" y="174" width="10" height="34" rx="5" transform="rotate(178 109 191)" />
    <rect x="36" y="136" width="10" height="34" rx="5" transform="rotate(236 41 153)" />
    <rect x="34" y="66" width="10" height="34" rx="5" transform="rotate(292 39 83)" />
  </g>

  <ellipse cx="80" cy="70" rx="32" ry="18" fill="#fff4d4" opacity="0.45" />
</svg>
