<svg xmlns="http://www.w3.org/2000/svg" viewBox="0 0 512 512" fill="currentColor">
  <path d="M256 512c21.8 0 42.6-6.1 61.2-17.6 21.6-13.2 39.8-31.5 53-53.1 13.2-21.6 19.4-45.8 19.4-71.3 0-22.2-4.5-43.6-12.7-63.8-8.2-20.2-19.4-39-33.1-55.8-13.7-16.8-29.6-31.4-47.3-43.1 14.5-8.5 27.2-19.1 37.6-31.4 10.4-12.3 18.5-26.1 23.9-41 5.4-14.9 8.2-30.6 8.2-46.7C368.1 48.4 349.7 0 304.3 0c-22.2 0-43.6 7-63.8 20.2-20.2 13.2-38 31.5-52.2 53.9-4.8 7.7-8.8 15.6-11.9 23.6-3.1-8-7.1-15.9-11.9-23.6C149.8 65.7 132 47.4 111.8 34.2 91.6 21 70.2 14 48.1 14c-45.4 0-63.8 48.4-63.8 103.8 0 16.1 2.8 31.8 8.2 46.7 5.4 14.9 13.4 28.7 23.9 41 10.4 12.3 23.1 22.9 37.6 31.4-17.7 11.7-33.6 26.3-47.3 43.1-13.7 16.8-24.9 35.6-33.1 55.8-8.2 20.2-12.7 41.6-12.7 63.8 0 25.5 6.1 49.7 19.4 71.3 13.2 21.6 31.5 39.8 53 53.1C213.4 505.9 234.2 512 256 512z"/>
</svg> 